PathFileType	4	(X/Y/Z)	Patient4_TMGait_0pt6_01_left_32.trc.trc
DataRate	CameraRate	NumFrames	NumMarkers	Units	OrigDataRate	OrigDataStartFrame	OrigNumFrames
78.212290502793	78.212290502793	4	33	mm	78.212290502793	1	       141
Frame#	Time	Sacral			L.Shoulder			Chest			R.Shoulder			Neck			R.ASIS			L.ASIS			R.Thigh.Superior			R.Thigh.Lateral			R.Thigh.Inferior			R.Patella			L.Thigh.Superior			L.Thigh.Lateral			L.Thigh.Inferior			L.Patella			L.Shank.Superior			L.Shank.Lateral			L.Shank.Inferior			R.Shank.Superior			R.Shank.Lateral			R.Shank.Inferior			R.Heel			R.Midfoot.Superior			R.Midfoot.Lateral			R.Toe			L.Heel			L.Midfoot.Lateral			L.Midfoot.Superior			L.Toe			L.Elbow			L.Wrist			R.Elbow			R.Wrist			
		X1	Y1	Z1	X2	Y2	Z2	X3	Y3	Z3	X4	Y4	Z4	X5	Y5	Z5	X6	Y6	Z6	X7	Y7	Z7	X8	Y8	Z8	X9	Y9	Z9	X10	Y10	Z10	X11	Y11	Z11	X12	Y12	Z12	X13	Y13	Z13	X14	Y14	Z14	X15	Y15	Z15	X16	Y16	Z16	X17	Y17	Z17	X18	Y18	Z18	X19	Y19	Z19	X20	Y20	Z20	X21	Y21	Z21	X22	Y22	Z22	X23	Y23	Z23	X24	Y24	Z24	X25	Y25	Z25	X26	Y26	Z26	X27	Y27	Z27	X28	Y28	Z28	X29	Y29	Z29	X30	Y30	Z30	X31	Y31	Z31	X32	Y32	Z32	X33	Y33	Z33	

1	38.880000000000	739.580240322657	1011.010534280372	534.295129368713	898.295924315676	1439.068723288271	340.887588361852	1013.463251916865	1373.604696134629	494.627744373036	940.659757362193	1443.037223751272	673.932203271638	891.349546492433	1499.924591660576	494.799872699930	969.490929914566	946.484982355853	639.864128522359	943.525360024453	966.253015794945	367.822964255990	1001.358558698616	740.755706308590	613.428935023578	912.685592182217	634.811915863841	669.039056212474	988.833852391460	580.486204729084	589.366921392949	985.040166742260	494.293232148352	592.572762034641	1030.161309021035	785.824658829086	393.443590698845	986.417786155132	660.433958536293	314.409195404477	1095.095177010049	601.251467343412	367.088310234228	1111.715187422981	512.456798032627	358.822230959400	1049.447436843373	441.532325497273	352.815339553578	909.666531597189	388.685267981358	307.712981134919	909.846355086245	257.289141400379	360.753379677857	957.204132334699	405.318004888106	594.864775215456	884.348527026078	300.129579928174	649.871146107190	929.143854908527	207.448727723691	585.068392898587	796.834433695622	43.296388341170	542.738302644824	966.252379934828	96.646814653739	587.539559449782	876.525617667486	36.833373353078	621.768231215695	1085.316570669641	41.860921236099	621.097910873007	725.463169886275	177.694992820606	403.745711327896	783.270009659102	138.288962473075	320.098090522947	888.887164937521	152.304053284065	338.265747487934	972.648201036802	45.797123443523	303.933363964558	894.370916406156	1076.884118698125	240.582622020752	994.925270639040	835.651917468453	232.205726095559	945.643766137638	1092.810013773299	796.841270646603	1130.609159855176	910.697908004008	769.364741740186	
2	38.892785714286	737.868209243418	1011.720468660856	535.799582676157	896.521655558866	1439.226564932172	342.052916904081	1012.504294283235	1373.424823863986	495.003500962727	941.285529500567	1443.252861507681	674.785788294439	891.270730596548	1500.124983263250	496.022557594289	967.944739511259	946.310286514580	640.460144684592	941.127176302702	966.732142086034	368.437325812918	997.137293996118	740.122931124876	613.099578971971	907.853658507797	634.834286642470	669.311084232421	982.869661621043	579.872140316065	589.559898220280	978.039666885427	493.831400276504	592.805721000601	1028.420324890467	787.950243182509	393.693539013624	985.705417051230	662.180382290825	314.030659871339	1094.737330915790	603.929064551328	367.121750114077	1112.962694760420	516.841184365832	358.608111067956	1055.044299050816	444.548888073414	352.244141565775	920.087647363195	382.673237513558	307.672954336188	930.339560137676	252.180312833324	359.581585844227	950.207648802298	405.279343132871	595.317586299846	876.885436135892	300.197595596430	650.177866070796	921.400272595224	207.362352563872	585.332606520918	788.657142482558	43.397984667015	542.785724963564	958.158272291441	96.617934574384	587.711047054273	868.367342325620	36.822447613193	621.848294695484	1077.132143417665	41.733593634953	621.210082913870	754.364142423078	159.531110917955	403.314201011383	813.582081180641	125.315102295095	318.959533598717	917.085383612066	146.982504086565	336.484816079478	1007.514315886805	48.118802961488	300.836456057709	885.587892195151	1077.080057223769	242.542423256400	973.590057710389	832.347788010954	236.255960293883	957.751907369517	1094.260451602626	797.712347719484	1153.175280324105	927.579703281683	767.269067172757	
3	38.905571428571	736.173550850697	1012.387476441617	537.246568651097	894.796373484199	1439.358216123073	343.195516860706	1011.567699358166	1373.198917862267	495.370752416354	941.899100488352	1443.404982280647	675.619487631707	891.205951981773	1500.285323581931	497.222390432826	966.412672495331	946.112395457809	641.024421143032	938.768148564371	967.147909399841	369.015866953687	992.983797450789	739.479758655448	612.786069543545	903.080406878258	634.840716049799	669.591170242366	976.981291541541	579.251386174653	589.748847309862	971.136186432514	493.372191577493	593.036184209515	1026.595591582806	789.863914466789	393.931590997168	984.847550993093	663.757663684106	313.668130446145	1094.137257377281	606.351818902197	367.264852186762	1113.967428209219	521.049412464293	358.497646042371	1060.420588183810	447.496282074910	351.761172029239	930.549080554294	376.683944096353	307.533356966672	950.766811066932	247.287286357039	358.431359034597	943.283056081762	405.214422698784	595.742015728805	869.504722579587	300.250057670481	650.474348960165	913.732379782374	207.265513764482	585.581606742478	780.552224676968	43.486815825132	542.841744996694	950.128706028936	96.586889628109	587.872211648856	860.273618965758	36.810466109096	621.922378831909	1069.013119490150	41.608833807795	621.318824131535	783.380894002444	141.769645395440	402.696672575444	844.047703944232	112.753896180430	317.747844471119	945.268518111328	142.002176491078	334.774239677874	1042.250740299928	50.878493110569	298.017974182244	876.741543483840	1077.317385628802	244.434603156521	952.530986810362	829.248775943516	240.258245329688	969.733325189878	1095.727163809492	798.534003444301	1175.306145940420	944.512073460234	765.106841909643	
4	38.918357142857	734.520135537139	1012.968355810527	538.580159429147	893.161285897044	1439.443829512708	344.285834852559	1010.670609401162	1372.889708007886	495.710995898117	942.484981363831	1443.439559341850	676.405497366481	891.164599558248	1500.371045617373	498.368482530733	964.913071036312	945.870395470744	641.516506391027	936.485803117159	967.444988947271	369.514415437247	988.958797904276	738.813464698550	612.494604154353	898.413402312927	634.817561174433	669.875353976615	971.226185597816	578.618858614555	589.920845111405	964.402880945273	492.915480815990	593.250065486556	1024.618306031443	791.383983038280	394.150830972063	983.728961038750	665.020170830098	313.332569895781	1093.105876389782	608.304848982367	367.589749662197	1114.524270016899	524.916557944426	358.570709141554	1065.368296983423	450.309416451994	351.426923622838	941.021608142361	370.785730262590	307.236525227937	970.968714815137	242.844774485757	357.329300406719	936.477872122655	405.103678006540	596.110611449311	862.263236618031	300.276163368152	650.750753959166	906.187065448871	207.150546696668	585.799986069748	772.561535763465	43.553377510307	542.910685399351	942.200779865387	96.553356602050	588.014894066041	852.281952565156	36.797265259310	621.986806641681	1060.998328930484	41.491287479336	621.419758353622	812.468595795026	124.889368485918	401.791953957060	874.628888077775	101.047362585142	316.444330119069	973.277357774613	137.701307162912	333.202068576133	1076.552995122591	54.442205928468	295.704420874851	867.792159474382	1077.649620962853	246.200898949315	931.997234732390	826.559588054612	244.159080885593	981.460316924096	1097.240047096619	799.238305580543	1196.531288844546	961.556094572695	762.807487049015	
